<svg xmlns="http://www.w3.org/2000/svg" width="412" height="206" fill="none"><rect width="412" height="206" fill="#fff" rx="28"/><path fill="#DCF4E5" d="M37.686 134.068c1.176 35.888 36.348 61.724 105.547 62.651 124.607 1.666 201.764-29.644 200.362-82.14-1.215-45.583-39.929-83.845-145.195-79.493-88.307 3.652-162.777 36.13-160.714 98.982Z"/><mask id="a_kidsignup_child_account" width="309" height="188" x="35" y="9" maskUnits="userSpaceOnUse" style="mask-type:luminance"><path fill="#fff" d="M343.595 114.579c-1.105-41.705-33.622-77.274-119.772-79.695V9.219H35.233v107.945h3.84c-1.106 5.365-1.589 11.002-1.394 16.904 1.176 35.888 36.347 61.724 105.546 62.651 124.608 1.666 201.764-29.644 200.363-82.14h.007Z"/></mask><g mask="url(#a_kidsignup_child_account)"><path fill="#D3E3FD" stroke="#000" stroke-linecap="round" stroke-linejoin="round" stroke-width=".7" d="M169.234 10.851 59.897 32.8c-10.815 2.17-17.822 12.697-15.651 23.512l33.276 165.777c2.17 10.815 12.697 17.822 23.512 15.652l109.338-21.947c10.814-2.171 17.822-12.698 15.651-23.513L192.747 26.503c-2.171-10.815-12.698-17.822-23.513-15.652Z"/><path fill="#7CACF8" d="m189.753 140.454-98.504 19.772a6.23 6.23 0 0 0-4.882 7.334l.788 3.924a6.229 6.229 0 0 0 7.333 4.881l98.505-19.772a6.23 6.23 0 0 0 4.881-7.334l-.788-3.924a6.229 6.229 0 0 0-7.333-4.881ZM153.07 172.538l-57.05 11.451a6.23 6.23 0 0 0-4.882 7.334l.788 3.924a6.229 6.229 0 0 0 7.333 4.881l57.051-11.451a6.23 6.23 0 0 0 4.881-7.334l-.788-3.924a6.229 6.229 0 0 0-7.333-4.881Z"/><path fill="#FAFBFF" d="m194.526 164.209-23.086 4.634a6.229 6.229 0 0 0-4.881 7.333l.788 3.924a6.23 6.23 0 0 0 7.333 4.882l23.086-4.634a6.23 6.23 0 0 0 4.881-7.334l-.787-3.924a6.23 6.23 0 0 0-7.334-4.881Z"/></g><path fill="#6DD58C" stroke="#000" stroke-linecap="round" stroke-linejoin="round" stroke-width=".7" d="M362.294 108.654 251.765 92.431c-9.254-1.358-17.857 5.043-19.215 14.297l-2.742 18.682c-1.358 9.254 5.042 17.857 14.297 19.215l110.528 16.223c9.255 1.359 17.858-5.042 19.216-14.296l2.742-18.682c1.358-9.255-5.043-17.858-14.297-19.216Z"/><path fill="#198639" d="M271.243 115.731a2.732 2.732 0 0 0-3.55-1.526l-4.517 1.791.709-4.843a2.734 2.734 0 0 0-2.313-3.099h-.054a2.721 2.721 0 0 0-3.099 2.304l-.709 4.844-3.815-3.006a2.735 2.735 0 0 0-3.839.452 2.734 2.734 0 0 0 .452 3.838l3.807 3.006-4.508 1.791a2.743 2.743 0 0 0-1.534 3.551 2.734 2.734 0 0 0 3.551 1.526l4.516-1.791-.709 4.843a2.734 2.734 0 0 0 2.313 3.099h.054a2.722 2.722 0 0 0 3.099-2.305l.709-4.843 3.815 3.006a2.735 2.735 0 0 0 3.839-.452 2.735 2.735 0 0 0-.452-3.839l-3.807-3.005 4.508-1.791a2.743 2.743 0 0 0 1.534-3.551ZM301.86 120.232a2.732 2.732 0 0 0-3.551-1.526l-4.516 1.79.709-4.843a2.734 2.734 0 0 0-2.313-3.099h-.055a2.722 2.722 0 0 0-3.099 2.305l-.708 4.843-3.815-3.005a2.735 2.735 0 0 0-3.839.451 2.735 2.735 0 0 0 .451 3.839l3.808 3.006-4.508 1.791a2.741 2.741 0 0 0-1.534 3.55 2.731 2.731 0 0 0 3.55 1.526l4.516-1.791-.708 4.844a2.733 2.733 0 0 0 2.312 3.099h.055a2.723 2.723 0 0 0 3.099-2.305l.709-4.843 3.815 3.005a2.735 2.735 0 0 0 3.839-.451 2.735 2.735 0 0 0-.452-3.839l-3.807-3.006 4.508-1.791a2.742 2.742 0 0 0 1.534-3.55ZM332.468 124.724a2.733 2.733 0 0 0-3.55-1.526l-4.517 1.791.709-4.843a2.734 2.734 0 0 0-2.313-3.099h-.054a2.722 2.722 0 0 0-3.099 2.305l-.709 4.843-3.815-3.006a2.735 2.735 0 0 0-3.839.452 2.736 2.736 0 0 0 .452 3.839l3.807 3.005-4.508 1.791a2.743 2.743 0 0 0-1.534 3.551 2.733 2.733 0 0 0 3.551 1.526l4.516-1.791-.709 4.843a2.734 2.734 0 0 0 2.313 3.099h.054a2.721 2.721 0 0 0 3.099-2.304l.709-4.844 3.815 3.006a2.734 2.734 0 0 0 3.388-4.29l-3.808-3.006 4.508-1.791a2.743 2.743 0 0 0 1.534-3.551ZM358.509 143.299l-19.228-3.038a2.07 2.07 0 0 0-2.369 1.722l-.002.016a2.07 2.07 0 0 0 1.722 2.369l19.228 3.038a2.07 2.07 0 0 0 2.369-1.722l.002-.016a2.071 2.071 0 0 0-1.722-2.369Z"/><path fill="#000" d="M292.882 105.048s5.723-5.544 13.836-4.446l17.777 2.647-31.621 1.791.008.008Z"/><path stroke="#C4EED0" stroke-linecap="round" stroke-linejoin="round" stroke-width=".7" d="M269.078 196.36c8.141 0 14.74-6.599 14.74-14.74 0-8.14-6.599-14.739-14.74-14.739-8.14 0-14.74 6.599-14.74 14.739 0 8.141 6.6 14.74 14.74 14.74Z"/><path fill="#C4EED0" stroke="#000" stroke-linecap="round" stroke-linejoin="round" stroke-width=".7" d="m302.057 46.135-.167-.064c-15.595-5.933-33.047 1.9-38.98 17.494l-.064.168c-5.933 15.595 1.899 33.047 17.494 38.98l.167.064c15.595 5.933 33.047-1.899 38.98-17.494l.064-.168c5.933-15.595-1.899-33.047-17.494-38.98Z"/><path fill="#1EA446" d="m302.722 78.406-22.805-8.64a3.014 3.014 0 0 0-3.886 1.75l-3.824 10.092a3.015 3.015 0 0 0 1.751 3.885l22.805 8.64a3.014 3.014 0 0 0 3.886-1.75l3.823-10.092a3.013 3.013 0 0 0-1.75-3.885Z"/><path fill="#1EA446" d="M282.518 77.74a1.698 1.698 0 0 1-.514-1.907l5.193-13.712a8.032 8.032 0 0 1 4.244-4.516 8.016 8.016 0 0 1 6.19-.187c.008 0 .024.008.031.016 4.151 1.588 6.245 6.26 4.672 10.418l-5.193 13.72a1.65 1.65 0 0 1-.888.942c-.413.187-.88.202-1.3.039l-11.968-4.532a1.89 1.89 0 0 1-.475-.272l.008-.008Zm13.891-17.169a4.663 4.663 0 0 0-3.574.117 4.664 4.664 0 0 0-2.468 2.624l-4.595 12.132 8.799 3.332 4.594-12.131c.919-2.422-.311-5.14-2.733-6.066-.008 0-.015 0-.023-.008Z"/><path fill="#C4EED0" d="m290.211 77.535-.014-.005a2.087 2.087 0 0 0-2.691 1.212l-1.024 2.701a2.088 2.088 0 0 0 1.212 2.69l.015.006a2.087 2.087 0 0 0 2.691-1.212l1.023-2.701a2.086 2.086 0 0 0-1.212-2.69Z"/><path stroke="#000" stroke-linecap="round" stroke-linejoin="round" stroke-width=".7" d="M282.121 38.427c-4.61-7.974-15.495-15.168-26.77-15.168-23.048 0-37.453 23.554-37.453 34.906 0 4.244 1.775 6.518 4.212 6.518 5.793 0 12.295-10.691 12.295-25.493 0-18.602-17.301-29.838-36.596-26.272"/><path fill="#4C8DF6" d="M127.808 132.238c24.58 0 44.507-19.926 44.507-44.507s-19.927-44.508-44.507-44.508c-24.581 0-44.508 19.927-44.508 44.508 0 24.581 19.927 44.507 44.508 44.507Z"/><path fill="#000" d="M119.243 78.52c1.012 2.14 21.981-22.979 21.981-22.979 13.136 8.729 31.278 32.174 27.759 41.136-1.207 3.068-3.87 3.722-5.42 3.824 1.246 2.141 1.534 6.104-.373 8.386-2.663 3.184-6.416 2.686-6.416 2.686l-37.539-33.061.008.007Z"/><path fill="#000" d="M124.405 76.612c-.747 2.546-30.943-5.435-30.943-5.435-12.358 12.193-24.45 29.884-20.058 35.086 2.85 3.379 6.642 1.713 6.642 1.713s-4.322 7.576-.14 11.563c4.118 3.924 9.483.646 9.483.646s-.163 5.739 5.498 7.358c4.858 1.386 7.646-2.904 7.646-2.904s2.764 5.497 8.908 4.376c5.232-.958 7.272-5.536 7.272-5.536s6.44-49.413 5.692-46.867Z"/><mask id="b_kidsignup_child_account" width="90" height="90" x="83" y="43" maskUnits="userSpaceOnUse" style="mask-type:luminance"><path fill="#fff" d="M127.808 132.238c24.58 0 44.507-19.926 44.507-44.507s-19.927-44.508-44.507-44.508c-24.581 0-44.508 19.927-44.508 44.508 0 24.581 19.927 44.507 44.508 44.507Z"/></mask><g mask="url(#b_kidsignup_child_account)"><path fill="#B26D3F" d="m113.87 104.215 5.583 30.429s-1.721 7.094-2.609 14.343c27.642 8.931 45.068-9.608 45.068-9.608l-7.412-9.975-4.82-21.966"/><path stroke="#000" stroke-linecap="round" stroke-linejoin="round" stroke-width=".7" d="m113.87 104.215 5.583 30.429s-1.721 7.094-2.609 14.343c27.642 8.931 45.068-9.608 45.068-9.608l-7.412-9.975-4.82-21.966"/></g><path fill="#000" d="M155.706 41.089c1.33-3.562-1.354-7.854-5.995-9.587-4.64-1.733-9.481-.252-10.811 3.31-1.33 3.56 1.354 7.853 5.995 9.586 4.641 1.734 9.481.252 10.811-3.31Z"/><path fill="#000" d="M156.156 54.534c2.036-5.45-2.309-12.109-9.706-14.871-7.396-2.763-15.043-.584-17.078 4.867-2.036 5.45 2.31 12.109 9.706 14.871 7.396 2.763 15.043.583 17.078-4.867Z"/><path fill="#000" d="M146.377 65.498c1.277-3.42-1.45-7.598-6.091-9.332-4.641-1.733-9.438-.365-10.716 3.055-1.277 3.42 1.45 7.598 6.09 9.331 4.641 1.733 9.439.366 10.717-3.054Z"/><path fill="#000" d="M158.418 66.465c1.277-3.42-1.45-7.598-6.091-9.332-4.641-1.733-9.438-.366-10.716 3.055-1.277 3.42 1.45 7.598 6.09 9.331 4.641 1.733 9.439.366 10.717-3.054ZM136.642 58.335c1.277-3.42-1.45-7.598-6.09-9.331-4.641-1.734-9.439-.366-10.717 3.054-1.277 3.42 1.45 7.598 6.091 9.331 4.64 1.734 9.438.366 10.716-3.054Z"/><path fill="#000" d="M164.754 60.136c1.44-3.855-1.155-8.386-5.796-10.119-4.641-1.733-9.57-.013-11.01 3.842-1.44 3.856 1.155 8.386 5.796 10.12 4.641 1.733 9.57.013 11.01-3.843ZM136.012 49.4c1.44-3.855-1.155-8.385-5.796-10.119-4.641-1.733-9.57-.013-11.01 3.843-1.44 3.855 1.155 8.385 5.796 10.119 4.641 1.733 9.57.013 11.01-3.843Z"/><path fill="#000" d="M164.598 49.926c1.428-3.823-1.177-8.328-5.818-10.061-4.641-1.733-9.561-.04-10.989 3.784-1.427 3.823 1.177 8.327 5.818 10.06 4.641 1.734 9.561.04 10.989-3.783ZM142.817 41.786c1.428-3.823-1.177-8.327-5.818-10.06-4.641-1.734-9.56-.04-10.988 3.783-1.428 3.823 1.176 8.328 5.817 10.061 4.641 1.733 9.561.04 10.989-3.784Z"/><path fill="#B26D3F" d="M129.178 116.751c5.637 2.141 11.633 2.437 16.99 1.246 10.232-2.282 15.519-9.468 13.183-26.225-1.262-9.056-4.672-20.16-7.211-26.755l-18.36-9.086-39.96 32.828"/><path stroke="#000" stroke-linecap="round" stroke-linejoin="round" stroke-width=".7" d="M129.178 116.751c5.637 2.141 11.633 2.437 16.99 1.246 10.232-2.282 15.519-9.468 13.183-26.225-1.262-9.056-4.672-20.16-7.211-26.755l-18.36-9.086-39.96 32.828"/><path fill="#000" d="M88.678 57.805c3.532-3.473 4.235-8.486 1.57-11.197-2.666-2.71-7.69-2.092-11.222 1.382-3.533 3.473-4.235 8.486-1.57 11.197 2.666 2.71 7.69 2.092 11.222-1.382Z"/><path fill="#000" d="M100.097 69.135c5.63-5.536 6.886-13.387 2.806-17.535-4.08-4.149-11.95-3.024-17.58 2.512-5.629 5.536-6.885 13.387-2.806 17.535 4.08 4.149 11.95 3.024 17.58-2.512Z"/><path fill="#000" d="M106.944 76.104c3.532-3.474 4.32-8.4 1.76-11.003-2.56-2.603-7.498-1.898-11.03 1.576-3.533 3.473-4.32 8.4-1.761 11.003 2.56 2.603 7.499 1.897 11.031-1.576Z"/><path fill="#000" d="M96.34 81.887c3.533-3.474 4.321-8.4 1.761-11.003-2.56-2.603-7.498-1.897-11.03 1.576-3.533 3.474-4.321 8.4-1.761 11.003 2.56 2.603 7.499 1.898 11.03-1.576ZM112.917 65.595c3.532-3.474 4.32-8.4 1.76-11.003-2.56-2.603-7.499-1.898-11.031 1.576-3.532 3.473-4.32 8.4-1.76 11.003 2.56 2.603 7.498 1.897 11.031-1.576Z"/><path fill="#000" d="M88.576 79.294c3.532-3.473 4.056-8.668 1.17-11.602-2.885-2.935-8.088-2.498-11.62.976-3.532 3.473-4.056 8.668-1.17 11.602 2.885 2.935 8.088 2.498 11.62-.976ZM110.448 57.783c3.532-3.473 4.056-8.668 1.171-11.602-2.886-2.935-8.089-2.497-11.62.976-3.533 3.474-4.057 8.668-1.172 11.603 2.886 2.934 8.089 2.497 11.621-.977Z"/><path fill="#000" d="M84.51 69.859c3.533-3.474 4.076-8.649 1.215-11.559-2.861-2.91-8.045-2.453-11.577 1.021-3.532 3.474-4.076 8.648-1.214 11.558 2.861 2.91 8.044 2.453 11.576-1.02ZM101.078 53.558c3.533-3.473 4.076-8.648 1.215-11.558-2.862-2.91-8.045-2.453-11.577 1.02-3.532 3.474-4.076 8.65-1.215 11.559 2.862 2.91 8.045 2.453 11.577-1.02ZM91.281 97.705l21.546 2.08 3.472-16.563s8.495-1.261 7.507-9.538c0 0 15.806 4.26 17.706-9.951 0 0 7.646 6.844 12.155 6.027-.351-9.321-14.413-25.953-28.507-19.358-7.919-1.456-21.047.654-29.44 19.708l-4.431 27.603-.008-.008Z"/><path fill="#B26D3F" d="M116.12 107.633c-2.009 1.464-4.983 1.986-7.966 1.152-4.64-1.284-7.568-5.341-6.54-9.055 1.028-3.715 5.629-5.684 10.27-4.392 2.134.592 3.901 1.768 5.093 3.224"/><path stroke="#000" stroke-linecap="round" stroke-linejoin="round" stroke-width=".7" d="M116.12 107.633c-2.009 1.464-4.983 1.986-7.966 1.152-4.64-1.284-7.568-5.341-6.54-9.055 1.028-3.715 5.629-5.684 10.27-4.392 2.134.592 3.901 1.768 5.093 3.224"/><path fill="#000" d="m116.65 84.686 2.009 13.284c.14.919-.911 1.534-1.651.973l-6.253-4.82 5.895-9.437Z"/><path stroke="#000" stroke-linecap="round" stroke-linejoin="round" stroke-width=".7" d="m106.169 101.046 8.184 2.219"/><path fill="#FBBC05" stroke="#000" stroke-linecap="round" stroke-miterlimit="10" stroke-width=".7" d="m108.194 86.952 8.588 2.243c2.25.584 4.47-1.028 4.61-3.34.14-2.337-1.9-4.221-4.221-3.879l-8.783 1.293a1.883 1.883 0 0 0-1.604 1.744 1.89 1.89 0 0 0 1.402 1.94h.008Z"/><path fill="#000" d="M137.315 94.173c1.072-.304 1.573-1.845 1.12-3.442-.453-1.597-1.689-2.645-2.76-2.341-1.072.304-1.573 1.845-1.12 3.442.453 1.597 1.689 2.645 2.76 2.34ZM132.044 84.273c-.88.289-1.643-.661-1.184-1.463a5.468 5.468 0 0 1 3.045-2.46 5.467 5.467 0 0 1 3.908.17c.849.374.795 1.589-.077 1.877l-5.692 1.869v.007ZM153.558 80.225c.927-.032 1.316-1.184.607-1.783a5.457 5.457 0 0 0-3.706-1.27 5.469 5.469 0 0 0-3.613 1.503c-.67.639-.202 1.768.716 1.736l5.988-.186h.008Z"/><path stroke="#000" stroke-linecap="round" stroke-linejoin="round" stroke-width=".7" d="M147.212 95.066c.965-.063 2.904.124 3.706.934 1.324 1.324-.015 4.446-.015 4.446"/><path fill="#000" d="M151.273 91.237c1.071-.304 1.574-1.844 1.122-3.441-.452-1.598-1.687-2.647-2.759-2.344-1.072.304-1.574 1.844-1.122 3.442.452 1.597 1.687 2.646 2.759 2.343Z"/><path fill="#fff" d="M140.04 101.637c-1.572.07-2.538 1.488-1.65 2.998 1.448 2.453 5.505 4.174 8.456 3.59 2.749-.545 4.438-2.079 5.232-3.582.6-1.137.327-2.219-.95-2.492-2.647-.56-7.817-.669-11.088-.521v.007Z"/><path fill="#000" d="m151.642 116.027 1.075 5.131s-12.949 2.001-23.625-4.158l.802-.179s12.918 4.407 21.748-.794Z"/><path fill="#C4EED0" d="M283.522 178.701c-1.355-6.736-7.304-11.813-14.444-11.813-8.137 0-14.74 6.596-14.74 14.74 0 1.846.351 3.598.974 5.225 2.18-.498 4.337-1.004 6.439-1.542 7.763-1.962 15.028-4.165 21.771-6.603v-.007Z"/></svg>